<?xml version="1.0" encoding="utf-8"?>
<!-- Generator: Adobe Illustrator 19.2.1, SVG Export Plug-In . SVG Version: 6.00 Build 0)  -->
<svg  version="1.1" id="layer" xmlns="http://www.w3.org/2000/svg" xmlns:xlink="http://www.w3.org/1999/xlink" x="0px" y="0px"
	 viewBox="0 0 652 652" style="enable-background:new 0 0 652 652;" xml:space="preserve">
<style type="text/css">
	.st0{fill:#A30C33;}
	.st1{fill:#FFFFFF;}
</style>
<path class="st0" d="M572.9,378.5c29.1,0,52.6-23.5,52.6-52.6c0-29.1-23.5-52.6-52.6-52.6s-52.6,23.5-52.6,52.6
	C520.3,355,543.8,378.5,572.9,378.5z"/>
<path class="st1" d="M542.8,313.8h3v-13.7h-3V313.8z M542.8,297.8h3V295h-3V297.8z M546.8,302.4h2.3v8.1c0,2.3,0.5,3.5,3.8,3.5
	c0.8,0,1.3,0,2-0.3v-2.3h-1.3c-1.3,0-1.5-0.5-1.5-1.8v-7.3h2.8v-2.3h-2.8v-4h-3v4h-2.3V302.4z M556.7,302.4c2-0.3,3.3-1.8,3.3-3.8
	V295h-3.3v3.5h1.5c0,1.3-0.3,2.3-1.5,2.3C556.7,300.9,556.7,302.4,556.7,302.4z M560,309.5c0,3.3,2.5,4.8,6.1,4.8
	c2.8,0,6.1-1.3,6.1-4.6c0-2.8-2.3-3.5-4.3-4c-2.3-0.5-4.6-0.8-4.6-2.3c0-1.3,1.5-1.5,2.5-1.5c1.3,0,2.5,0.5,2.8,1.8h3
	c-0.3-3-2.8-4.3-5.8-4.3c-2.5,0-5.8,1-5.8,3.8s2.3,3.5,4.3,4c2.3,0.5,4.3,0.8,4.6,2.3c0,1.5-2,1.8-3,1.8c-1.5,0-3-0.8-3-2.3H560
	L560,309.5L560,309.5z M588.6,309.2c0,1.8-2,2.5-3.3,2.5c-1,0-2.8-0.5-2.8-1.8c0-1.5,1.3-2,2.5-2.3c1.3-0.3,2.8-0.3,3.8-0.8v2.3
	H588.6L588.6,309.2z M591.6,303.9c0-2.8-2.8-4-5.6-4c-3,0-6.1,1-6.1,4.6h3c0.3-1.5,1.3-2.3,3-2.3c1.3,0,2.8,0.3,2.8,1.8
	c0,1.8-2,1.5-4,2c-2.5,0.3-5.3,0.8-5.3,4.3c0,2.8,2.3,4,4.6,4c1.5,0,3.5-0.5,4.8-1.8c0.3,1.3,1,1.8,2.3,1.8c0.5,0,1.5-0.3,1.8-0.3
	v-2h-0.8c-0.5,0-0.8-0.3-0.8-1v-7.1H591.6L591.6,303.9z M549.4,330.7c-2.5,0-3.5-2.3-3.5-4.6s1-4.8,3.5-4.8c2.5,0,3.5,2.3,3.5,4.6
	C552.9,328.4,551.9,330.7,549.4,330.7z M555.9,319.6h-3v1.8c-0.8-1.5-2.3-2.3-4-2.3c-3.8,0-6.1,3.3-6.1,6.8c0,3.8,1.8,7.1,6.1,7.1
	c1.8,0,3.3-1,4-2.3v2c0,2.3-1,3.5-3.5,3.5c-1.5,0-2.8-0.3-3.3-2h-3c0.3,3.3,3.3,4.3,6.1,4.3c4.3,0,6.6-2,6.6-6.1v-12.9H555.9
	L555.9,319.6z M564.5,331.2c-2.8,0-3.8-2.5-3.8-4.8c0-2.3,1.3-4.8,3.8-4.8c2.5,0,3.8,2.5,3.8,4.8
	C568.3,328.7,567.1,331.2,564.5,331.2z M564.5,333.5c4.3,0,6.8-3,6.8-7.1c0-4-2.5-7.1-6.8-7.1s-6.8,3-6.8,7.1S560,333.5,564.5,333.5
	z M579.2,331.2c-2.8,0-3.8-2.5-3.8-4.8c0-2.3,1.3-4.8,3.8-4.8c2.8,0,3.8,2.5,3.8,4.8C583.3,328.7,582,331.2,579.2,331.2z
	 M579.2,333.5c4.3,0,6.8-3,6.8-7.1c0-4-2.5-7.1-6.8-7.1s-6.8,3-6.8,7.1S574.9,333.5,579.2,333.5z M590.3,326.4c0-2.5,1-5.1,3.8-5.1
	c2.3,0,3.8,1.8,3.8,4.8c0,2.3-1,4.8-3.8,4.8C591.4,331.2,590.3,328.7,590.3,326.4z M600.7,314.3h-3v7.1c-1-1.5-2.8-2-4.6-2
	c-3,0-5.8,2.3-5.8,7.1c0,4,2,7.3,6.3,7.3c1.8,0,3.5-0.8,4.3-2.3v1.8h2.8V314.3z M562.3,357.5h3v-18.7h-3V357.5z M567.8,357.5h3
	v-13.7h-3V357.5z M567.8,341.6h3v-2.8h-3C567.8,338.8,567.8,341.6,567.8,341.6z M572.1,346.1h2.3v11.4h3v-11.4h2.5v-2.3h-2.5v-1.5
	c0-1,0.8-1.5,1.5-1.5c0.5,0,1,0,1.5,0.3v-2.3c-0.5-0.3-1.3-0.3-2-0.3c-2,0-3.8,0.5-3.8,4v1.3h-2.5
	C572.1,343.9,572.1,346.1,572.1,346.1z M593.4,351.4c0.5-4-2-7.8-6.3-7.8c-4,0-6.6,3.3-6.6,7.1c0,4.3,2.3,7.1,6.6,7.1
	c3,0,5.6-1.8,6.1-4.6h-2.8c-0.5,1.5-1.5,2.3-3.3,2.3c-2.5,0-3.5-1.8-3.5-4H593.4L593.4,351.4z M583.3,349.4c0-2,1.5-3.5,3.5-3.5
	s3.3,1.8,3.5,3.5H583.3L583.3,349.4z M594.9,357.5h3.5V354h-3.5V357.5z"/>
<g>
	<path d="M26,329.9c0-1.5,0-3.3,2-3.3c3.8,0,2.8,11.9,14.2,11.9c3.3,0,8.6-1.8,8.6-6.1c0-4.3-3.8-6.1-7.1-7.3
		c-6.6-2.3-17.5-5.6-17.5-14.7c-0.3-9.6,9.4-14.4,17.2-14.4c3.5,0,8.6,0.8,11.9,1.8c2.3,0.5,2.5,1,2.5,3.8v2.3c-0.3,1.3,0,4.3-2,4.3
		c-1.3,0-2.3-1.5-3-2.3c-2.8-4-3.8-6.6-9.1-6.6c-3,0-7.1,1.3-7.1,5.3c0,3.3,3.8,4.8,6.3,5.6l4.8,1.5c6.3,2,12.4,5.6,12.4,13.7
		c0,5.3-2.5,9.9-6.6,12.9c-3.8,3-9.1,4-13.7,4c-3.8,0-8.9-0.8-12.1-2.8c-2.3-1.3-2.3-2.5-2.3-5.1C25.5,334.5,26,329.9,26,329.9z"/>
	<path d="M78.9,333.2c0,0.3,0,3.5,4.8,4.3c1,0.3,2.8,0.5,2.8,2.3c0,1.5-0.8,1.5-2,1.5c-4,0-8.1-0.3-12.1-0.3c-4,0-8.3,0.3-12.4,0.3
		c-1.3,0-2-0.3-2-1.5c0-1.8,1.3-2,2.3-2.3c5.3-0.8,5.3-4,5.3-4.3v-45c0-5.3,0.3-6.3-4.6-7.1c-0.8,0-1.8-0.5-1.8-1.5
		c0-1.8,2.5-2,3.8-2.3c4-0.5,7.6-2,11.4-3.5c0.8,0,2-0.8,3-0.8c2,0,1.5,3.3,1.5,4.6C78.9,277.6,78.9,333.2,78.9,333.2z"/>
	<path d="M127.7,331c0,2.5,1.5,3,3.8,3.3c0.8,0,1.8,0.5,1.8,1.5c0,1.5-3,2-4,2.3l-9.1,2.8c-0.8,0.3-2.8,1.3-3.5,1.3
		c-1.5,0-1-2.5-1-3.5c0-0.5,0.3-3.5-0.8-3.5c-0.5,0-1.3,0.8-1.8,1c-3.8,3.3-7.8,5.6-12.6,5.6c-3.5,0-7.6-1.5-9.9-4.6
		c-2.5-3.3-2.8-7.8-2.8-11.9v-15.4c0-1.8,0.3-5.6-0.8-7.3c-1-1.5-2.8-1.8-4.3-2c-1-0.3-2-0.8-2-2c0-1.5,1.5-1.5,2.5-1.5
		c2.8,0,5.3,0.3,8.1,0.3s5.3-0.3,8.1-0.3c1,0,1.3,0.3,1.3,1.5v26.1c0,2.3,0.3,5.6,1.3,7.6c1,2,3,3,5.1,3c2.3,0,5.1-1.5,6.6-3.3
		s1.3-3.5,1.3-5.8v-15.7c0-1.8,0.3-5.6-0.8-7.3c-1-1.5-2.8-1.8-4.3-2c-1-0.3-2-0.8-2-2c0-1.8,1.5-1.5,2.5-1.5c2.8,0,5.3,0.3,8.1,0.3
		c2.8,0,5.3-0.3,8.1-0.3c1.5,0,1,2,1,3.3V331L127.7,331z"/>
	<path d="M152.7,301.4c1.3,0,5.8-5.3,13.4-5.3c4,0,8.1,1.5,10.9,4.8c0.3,0.3,1,1.3,1.3,1.3c0.8,0,6.6-6.1,13.4-6.1
		c3.8,0,8.3,1.3,11.4,3.8c4,3.5,3.8,7.8,3.8,12.6v15.4c0,2.3-0.3,5.8,0.8,7.6c0.8,1.3,2.8,1.3,4,1.5c1,0.3,2,0.8,2,2
		c0,1.5-1.5,1.8-2.8,1.8c-3,0-6.1-0.3-9.1-0.3c-4,0-8.1,0.3-11.9,0.3c-1,0-2-0.3-2-1.8c0-1.3,0.8-1.8,1.8-2c1.3-0.5,2.8-0.8,3.5-2
		c0.8-1.5,0.5-5.3,0.5-7.3v-13.2c0-2.5,0-6.6-0.8-8.9c-1-2.5-3.8-4-6.3-4s-5.3,0.8-6.6,3.3c-0.8,1.3-0.5,3.8-0.5,5.3v17.7
		c0,1.8-0.3,5.8,0.5,7.3s2.3,1.8,3.5,2c1,0.3,1.8,0.8,1.8,2c0,1.3-1,1.8-2,1.8c-4,0-7.8-0.3-11.6-0.3c-3,0-6.1,0.3-9.1,0.3
		c-1,0-2-0.3-2-1.8c0-1.3,0.8-1.8,1.8-2c1-0.3,2.8-0.8,3.3-1.5c1.3-1.8,0.8-5.6,0.8-7.6V314c0-5.6-0.5-11.9-6.6-11.9
		c-2.3,0-5.1,1-6.3,3c-1.5,2-1,4.8-1,7.1v16.2c0,1.8-0.3,5.8,0.5,7.3c0.8,1.5,2.3,1.8,3.5,2c1,0.3,1.8,0.8,1.8,2c0,1.5-1,1.8-2,1.8
		c-4,0-8.1-0.3-11.9-0.3c-3,0-6.1,0.3-9.1,0.3c-1,0-2.8,0-2.8-1.8c0-1.3,1-2,2-2c1.3-0.3,3.3-0.5,4-1.5c1.3-1.8,0.8-5.3,0.8-7.6
		v-14.2c0-4,0.3-6.3-3.8-6.8c-1.3,0-2.5,0-2.5-1.5c0-1.8,2.8-2,3.8-2.3c3.8-1,8.6-3.3,11.1-6.6c1-1.5,1.8-2.5,3.5-2.5
		c1.3,0,1.3,2.5,1.3,3.5L152.7,301.4L152.7,301.4z M230.1,308.7c0-1.3,0-3.3,0.8-4.6c1-1.5,3-2,4.8-2c7.8,0,11.4,10.6,11.4,18
		c0,3.8-0.5,7.6-2.3,11.4c-1.5,3.5-4.6,7.1-8.3,7.1c-7.1,0-6.6-6.8-6.6-12.6v-17.2H230.1z M230.1,277.6c0-1.3,0.5-4.6-1.5-4.6
		c-1,0-2.3,0.8-3.3,1c-3.8,1.5-7.3,3-11.4,3.5c-1.3,0.3-3.5,0.3-3.5,2.3c0,1,1,1.3,1.8,1.5c4.8,0.8,4.6,1.8,4.6,7.1v45
		c0,2,0,4.6-0.3,6.6c0,0.5-0.3,1.3-0.3,1.5c0,1.3,0.5,2,1.5,2c2.5,0,2.8-6.1,4.8-6.1c0.5,0,2,1,2.5,1.3c4,2.3,6.6,3.3,11.4,3.3
		c12.6,0,25-8.9,25-24c0-12.4-8.3-22-19.5-22c-2.8,0-3.5,0.5-5.8,1.5c-0.3,0.3-5.1,2.8-5.6,2.8c-0.3,0-0.5-0.3-0.5-0.5
		C230.1,299.8,230.1,277.6,230.1,277.6z M280.7,310.7c-1.3,0-2.8,0.3-2.8-1.5c0-2,1.3-4.8,2.5-6.6c1.8-2,4.6-3.5,7.1-3.5
		c3.3,0,5.6,2.5,5.6,6.1c0,2.5-0.8,4.3-3.3,4.8C287.6,310.7,283,310.7,280.7,310.7z M300.2,314.3c3,0,4.8,0,4.8-3.5
		c0-4-2.5-7.6-5.3-10.1c-3.5-3-8.6-4.6-13.2-4.6c-11.9,0-23.5,8.6-23.5,22.3s10.4,23.5,22.8,23.5c5.3,0,10.1-1.5,14.4-4.8
		c1.3-0.8,4.6-3.5,4.6-5.3c0-0.8-0.5-1.5-1.3-1.5c-2,0-4.8,5.1-11.4,5.1c-9.4,0-14.9-9.4-14.9-18.7c0-2.8,0.8-2.5,3-2.5h20V314.3z"
		/>
	<path d="M324.5,303.4c1.5,0,5.1-7.3,12.1-7.3c3.5,0,7.3,3,7.3,7.3s-3.3,7.8-7.1,7.8c-5.6,0-6.1-5.6-8.9-5.6
		c-4.3,0-3.5,10.1-3.5,12.9v9.6c0,2.3-0.3,5.6,0.3,7.6c0.5,1.5,3,1.3,4.8,1.5c1,0.3,2,0.8,2,2c0,1.5-1.5,1.8-2.8,1.8
		c-3.5,0-7.3-0.3-10.9-0.3s-7.1,0.3-10.9,0.3c-1,0-2.5-0.3-2.5-1.8c0-1.3,1-1.8,2-2c1.3-0.3,3.8-0.3,4.3-1.5c0.5-2,0.5-5.6,0.5-7.6
		V314c0-4,0.3-6.3-3.8-6.8c-1.3,0-2.5,0-2.5-1.5c0-1.8,2.8-2,3.8-2.3c3.8-1,8.6-3.3,11.1-6.6c0.5-0.8,1.3-1.8,3-1.8
		c1.3,0,1.3,2.5,1.3,3.5v4.8H324.5z"/>
	<path d="M360.2,333.2c0,0.3,0,3.5,4.8,4.3c1,0.3,2.8,0.5,2.8,2.3c0,1.5-0.8,1.5-2,1.5c-4,0-8.1-0.3-12.1-0.3c-4,0-8.3,0.3-12.4,0.3
		c-1.3,0-2-0.3-2-1.5c0-1.8,1.3-2,2.3-2.3c5.3-0.8,5.3-4,5.3-4.3v-45c0-5.3,0.3-6.3-4.6-7.1c-0.8,0-1.8-0.5-1.8-1.5
		c0-1.8,2.5-2,3.8-2.3c4-0.5,7.6-2,11.4-3.5c0.8-0.5,2.3-1,3.3-1c2,0,1.5,3.3,1.5,4.6v55.9H360.2z"/>
	<path d="M390.5,326.2c0,1.5-0.3,3.3-0.8,4.3c-1,2-4,3.5-6.3,3.5c-3,0-4.8-2.5-4.8-5.6c0-3.5,2-5.6,4.6-7.3c0.8-0.5,5.3-3.8,6.3-3.8
		c1,0,1,3.8,1,4V326.2z M403.2,306.7c0-3.3-0.3-6.1-3-8.1c-3-2-7.6-2.8-11.1-2.8c-5.6,0-11.6,1.5-16.2,5.1c-2,1.5-5.8,5.8-5.8,8.9
		c0,1.5,1.3,2.3,2.8,2.3c2,0,5.3-1,7.1-2c2.3-1,2.8-2.5,3.8-4.8c1-2.8,3-6.1,6.3-6.1c4.6,0,3.8,6.8,3.8,10.1v3.3c0,0.3-0.3,0.5-1,1
		c-2,1.8-5.3,3.5-8.3,4.6c-3,1-7.6,3.3-9.9,5.3c-3,2.5-4.8,5.3-4.8,9.4c0,5.6,3.8,9.4,9.1,9.4c8.6,0,13.9-7.6,14.9-7.6
		c0.8,0,1.3,2,1.5,2.3c1.3,3.3,3,4.6,6.3,4.6c3.5,0,6.8-2,9.6-4.6c0.8-0.8,2.3-2.3,2.3-3.5c0-0.8-0.5-1.3-1-1.3
		c-0.8,0-1.5,0.8-2,1.3c-0.8,0.5-1.3,1-2.3,1c-2.5,0-2-4.6-2-6.1L403.2,306.7L403.2,306.7z"/>
	<path d="M427.7,302.6c1.3,0,5.8-6.6,14.2-6.6c3.8,0,7.8,1.3,10.9,4c3.5,3.3,3.5,7.3,3.5,12.1v16.2c0,2.3-0.3,5.8,0.8,7.6
		c0.8,1.3,2.8,1.3,4,1.5c1,0.3,2,0.8,2,2c0,1.5-1.5,1.8-2.8,1.8c-3,0-6.1-0.3-9.1-0.3c-4,0-8.1,0.3-11.9,0.3c-1,0-2-0.3-2-1.8
		c0-1.3,0.8-1.8,1.8-2c1.3-0.5,2.8-0.8,3.5-2c0.8-1.5,0.5-5.3,0.5-7.3V314c0-2.5-0.3-6.1-1.5-8.3c-1.3-2.3-3.5-3.5-5.8-3.5
		c-2.3,0-4.8,1.3-6.6,2.8c-2.3,2.3-2,4.3-2,7.6v15.7c0,1.8-0.3,5.8,0.5,7.3s2.3,1.8,3.5,2c1,0.3,1.8,0.8,1.8,2c0,1.5-1,1.8-2,1.8
		c-4,0-8.1-0.3-11.9-0.3c-3,0-6.1,0.3-9.1,0.3c-1,0-2.8,0-2.8-1.8c0-1.3,1-2,2-2c1.3-0.3,3.3-0.5,4-1.5c1.3-1.8,0.8-5.3,0.8-7.6
		v-14.2c0-4,0.3-6.3-3.8-6.8c-1.3,0-2.5,0-2.5-1.5c0-1.8,2.8-2,3.8-2.3c3.8-1,8.6-3.3,11.1-6.6c0.5-0.8,1.3-1.8,3-1.8
		c1.3,0,1.3,2.5,1.3,3.5v3.8H427.7z"/>
	<path d="M490.4,333c-1.3,1.3-3.5,1.5-5.1,1.5c-8.1,0-11.9-9.6-11.9-17.5c0-7.1,2.5-17.5,10.4-17.5c2.3,0,4.3,1.5,5.6,3.5
		c1.3,2,1,6.3,1,8.9V333z M503.8,277.1c0-1.3,0-4-1.8-4c-0.5,0-1,0.3-1.5,0.5c-3.5,2-7.6,3.5-11.6,4.3c-1.3,0.3-4.8,0.3-4.8,2.5
		c0,1.8,2,2,3,2c4,0,3.3,3,3.3,6.8v8.6c-1,0-2.5-0.5-2.8-0.8c-1.8-0.5-3.3-0.8-5.1-0.8c-12.4,0-22.8,9.9-22.8,24
		c0,12.1,7.3,22,18.5,22c7.6,0,11.6-5.6,12.4-5.6c0.5,0,0.5,0.8,0.5,1.3l0.3,2c0.3,1.3,0.5,2.3,1.8,2.3c0.8,0,2.8-0.8,3.5-1
		l11.6-4.6c2.5-1,2-0.8,2.3-4c0-1,0-2.5-1.3-2.5c-1.8,0-2.8,3.5-4.6,3.5c-1.5,0-1-2.8-1-3.8L503.8,277.1L503.8,277.1z M242.8,354.5
		v7.6h8.6v2.8h-8.6v12.9H240V352h11.9v2.8h-9.1V354.5z M271.9,367.4c0,2,0,4,1,5.8c1,1.5,3.3,2.5,5.3,2.5c1.8,0,3.8-0.8,5.1-2.3
		c1.3-1.8,1.3-3.8,1.3-5.8v-15.4h2.8v16.2c0,2.8-0.3,5.1-2.3,7.1c-1.8,2-4.3,3-7.1,3c-2.5,0-5.1-1-6.6-2.5c-2.3-2.3-2.5-4.6-2.5-7.6
		v-16.2h2.8v15.2H271.9z M308,354.5h0.8c3.5,0,6.6,0.5,6.6,4.6s-3.3,4.6-6.6,4.6h-1v-9.1H308z M308,366.4h0.8l7.8,11.4h3.5
		l-8.3-11.6c4-0.3,6.6-3,6.6-7.1c0-5.8-4.6-7.1-9.4-7.1h-3.8v25.8h2.8C308,377.8,308,366.4,308,366.4z M336.4,350.7l20.2,21.2v-20
		h2.8V379l-20.2-21v20h-2.8C336.4,378,336.4,350.7,336.4,350.7z M380.4,377.8h-2.8V352h2.8V377.8z M405.2,377.8h-2.8v-23.3h-6.3
		v-2.8h15.4v2.8h-6.3V377.8z M430,367.4c0,2,0,4,1,5.8c1,1.5,3.3,2.5,5.3,2.5c1.8,0,3.8-0.8,5.1-2.3c1.3-1.8,1.3-3.8,1.3-5.8v-15.4
		h2.8v16.2c0,2.8-0.3,5.1-2.3,7.1c-1.8,2-4.3,3-7.1,3c-2.5,0-5.1-1-6.6-2.5c-2.3-2.3-2.5-4.6-2.5-7.6v-16.2h2.8v15.2H430z
		 M466.1,354.5h0.8c3.5,0,6.6,0.5,6.6,4.6s-3.3,4.6-6.6,4.6h-1v-9.1H466.1z M466.1,366.4h0.8l7.8,11.4h3.5l-8.3-11.6
		c4-0.3,6.6-3,6.6-7.1c0-5.8-4.6-7.1-9.4-7.1h-3.8v25.8h2.8C466.1,377.8,466.1,366.4,466.1,366.4z M494.5,352h13.4v2.8h-10.6v7.6
		h10.1v2.8h-10.1v10.1h10.6v2.8h-13.4V352z"/>
	<g>
		<path d="M514.5,277.6c0,1-0.5,2-1.3,2.8s-1.8,1-2.8,1s-2-0.3-2.8-1c-0.8-0.8-1.3-1.8-1.3-2.8c0-1,0.5-2,1.3-2.8
			c0.8-0.8,1.8-1.3,2.8-1.3c1,0,2,0.5,2.8,1.3C514.2,275.6,514.5,276.6,514.5,277.6z M513.7,277.6c0-0.8-0.3-1.5-0.8-2.3
			c-0.5-0.5-1.3-1-2-1s-1.5,0.3-2,1c-0.5,0.5-0.8,1.3-0.8,2.3c0,0.8,0.3,1.5,0.8,2.3c0.5,0.5,1.3,1,2,1s1.5-0.3,2-1
			C513.4,279.1,513.7,278.3,513.7,277.6z M511.2,279.6v-0.8c0-0.3,0-0.5-0.3-0.8c0-0.3-0.3-0.3-0.5-0.3h-0.3v1.8h-1v-4h1.5
			c0.5,0,0.8,0,1,0.3c0.3,0.3,0.3,0.5,0.3,0.8v0.5c0,0.3,0,0.5-0.3,0.5c0,0.3-0.3,0.3-0.5,0.3c0.3,0.3,0.5,0.3,0.5,0.5
			c0,0.3,0.3,0.5,0.3,0.8v0.8h-0.8V279.6z M511.2,276.8C511.2,276.6,511.2,276.6,511.2,276.8v-0.5l-0.3-0.3h-0.5v1h0.8
			C511.2,277.1,511.2,276.8,511.2,276.8z"/>
		<path d="M514.5,277.6c0,1-0.5,2-1.3,2.8s-1.8,1-2.8,1s-2-0.3-2.8-1c-0.8-0.8-1.3-1.8-1.3-2.8c0-1,0.5-2,1.3-2.8
			c0.8-0.8,1.8-1.3,2.8-1.3c1,0,2,0.5,2.8,1.3C514.2,275.6,514.5,276.6,514.5,277.6z M513.7,277.6c0-0.8-0.3-1.5-0.8-2.3
			c-0.5-0.5-1.3-1-2-1s-1.5,0.3-2,1c-0.5,0.5-0.8,1.3-0.8,2.3c0,0.8,0.3,1.5,0.8,2.3c0.5,0.5,1.3,1,2,1s1.5-0.3,2-1
			C513.4,279.1,513.7,278.3,513.7,277.6z M511.2,279.6v-0.8c0-0.3,0-0.5-0.3-0.8c0-0.3-0.3-0.3-0.5-0.3h-0.3v1.8h-1v-4h1.5
			c0.5,0,0.8,0,1,0.3c0.3,0.3,0.3,0.5,0.3,0.8v0.5c0,0.3,0,0.5-0.3,0.5c0,0.3-0.3,0.3-0.5,0.3c0.3,0.3,0.5,0.3,0.5,0.5
			c0,0.3,0.3,0.5,0.3,0.8v0.8h-0.8V279.6z M511.2,276.8C511.2,276.6,511.2,276.6,511.2,276.8v-0.5l-0.3-0.3h-0.5v1h0.8
			C511.2,277.1,511.2,276.8,511.2,276.8z"/>
	</g>
</g>
<g>
	<path class="st1" d="M600.7,341.8c0,0.8-0.3,1.5-0.8,2c-0.5,0.5-1.3,0.8-2,0.8c-0.8,0-1.5-0.3-2-0.8c-0.5-0.5-0.8-1.3-0.8-2
		c0-0.8,0.3-1.5,0.8-2c0.5-0.5,1.3-0.8,2-0.8c0.8,0,1.5,0.3,2,0.8C600.5,340.3,600.7,340.8,600.7,341.8z M600,341.8
		c0-0.5-0.3-1.3-0.8-1.5c-0.5-0.5-1-0.8-1.5-0.8s-1.3,0.3-1.5,0.8c-0.5,0.5-0.8,1-0.8,1.5c0,0.5,0.3,1.3,0.8,1.5
		c0.5,0.5,1,0.8,1.5,0.8c0.5,0,1.3-0.3,1.5-0.8C600,342.8,600,342.3,600,341.8z M598.2,343.4v-0.5v-0.5c0-0.3-0.3-0.3-0.3-0.3h-0.3
		v1.3h-0.8v-3h1.3c0.3,0,0.5,0,0.8,0.3c0.3,0.3,0.3,0.3,0.3,0.5v0.5c0,0.3,0,0.3-0.3,0.5l-0.3,0.3c0.3,0,0.3,0.3,0.5,0.5v1h-1V343.4
		z M598.2,341.1v-0.3h-0.3h-0.3h-0.3v0.8h0.8C598.2,341.6,598.2,341.1,598.2,341.1z"/>
	<path class="st1" d="M600.7,341.8c0,0.8-0.3,1.5-0.8,2c-0.5,0.5-1.3,0.8-2,0.8c-0.8,0-1.5-0.3-2-0.8c-0.5-0.5-0.8-1.3-0.8-2
		c0-0.8,0.3-1.5,0.8-2c0.5-0.5,1.3-0.8,2-0.8c0.8,0,1.5,0.3,2,0.8C600.5,340.3,600.7,340.8,600.7,341.8z M600,341.8
		c0-0.5-0.3-1.3-0.8-1.5c-0.5-0.5-1-0.8-1.5-0.8s-1.3,0.3-1.5,0.8c-0.5,0.5-0.8,1-0.8,1.5c0,0.5,0.3,1.3,0.8,1.5
		c0.5,0.5,1,0.8,1.5,0.8c0.5,0,1.3-0.3,1.5-0.8C600,342.8,600,342.3,600,341.8z M598.2,343.4v-0.5v-0.5c0-0.3-0.3-0.3-0.3-0.3h-0.3
		v1.3h-0.8v-3h1.3c0.3,0,0.5,0,0.8,0.3c0.3,0.3,0.3,0.3,0.3,0.5v0.5c0,0.3,0,0.3-0.3,0.5l-0.3,0.3c0.3,0,0.3,0.3,0.5,0.5v1h-1V343.4
		z M598.2,341.1v-0.3h-0.3h-0.3h-0.3v0.8h0.8C598.2,341.6,598.2,341.1,598.2,341.1z"/>
</g>
</svg>
